P3
67 52
255
253 253 253 255 255 255 255 255 255 252 252 252 253 253 253 255 255 255 255 255 255 251 251 251 255 255 255 255 255 255 245 245 245 255 255 255 252 252 252 255 255 255 255 255 255 253 253 253 254 254 254 255 255 255 251 251 251 252 252 252 255 255 255 255 255 255 255 255 255 243 243 243 253 253 253 255 255 255 255 255 255 253 253 253 255 255 255 254 254 254 251 251 251 255 255 255 248 248 248 255 255 255 253 253 253 248 248 248 255 255 255 242 242 242 255 255 255 255 255 255 255 255 255 254 254 254 246 246 246 252 252 252 255 255 255 254 254 254 250 250 250 255 255 255 255 255 255 255 255 255 255 255 255 255 255 255 255 255 255 255 255 255 255 255 255 255 255 255 255 255 255 255 255 255 255 255 255 255 255 255 255 255 255 255 255 255 255 255 255 255 255 255 255 255 255 255 255 255 255 255 255 
250 250 250 255 255 255 255 255 255 255 255 255 255 255 255 255 255 255 255 255 255 255 255 255 246 246 246 249 249 249 255 255 255 255 255 255 246 246 246 251 251 251 248 248 248 255 255 255 255 255 255 250 250 250 255 255 255 247 247 247 250 250 250 254 254 254 252 252 252 255 255 255 255 255 255 255 255 255 247 247 247 246 246 246 252 252 252 255 255 255 255 255 255 254 254 254 255 255 255 254 254 254 239 239 239 255 255 255 255 255 255 250 250 250 254 254 254 246 246 246 243 243 243 251 251 251 255 255 255 255 255 255 255 255 255 253 253 253 253 253 253 255 255 255 255 255 255 255 255 255 255 255 255 255 255 255 255 255 255 255 255 255 255 255 255 255 255 255 255 255 255 255 255 255 255 255 255 255 255 255 255 255 255 255 255 255 255 255 255 255 255 255 255 255 255 255 255 255 255 255 255 
255 255 255 255 255 255 252 252 252 250 250 250 248 248 248 246 246 246 247 247 247 251 251 251 255 255 255 249 249 249 255 255 255 253 253 253 255 255 255 255 255 255 253 253 253 255 255 255 255 255 255 255 255 255 255 255 255 255 255 255 255 255 255 241 241 241 255 255 255 253 253 253 253 253 253 251 251 251 255 255 255 255 255 255 253 253 253 253 253 253 255 255 255 255 255 255 255 255 255 255 255 255 248 248 248 246 246 246 255 255 255 255 255 255 255 255 255 253 253 253 255 255 255 255 255 255 255 255 255 253 253 253 249 249 249 255 255 255 255 255 255 252 252 252 255 255 255 255 255 255 255 255 255 255 255 255 255 255 255 255 255 255 255 255 255 255 255 255 255 255 255 255 255 255 255 255 255 255 255 255 255 255 255 255 255 255 255 255 255 255 255 255 255 255 255 255 255 255 255 255 255 
255 255 255 249 249 249 245 245 245 254 254 254 255 255 255 255 255 255 255 255 255 255 255 255 255 255 255 255 255 255 249 249 249 255 255 255 250 250 250 255 255 255 249 249 249 251 251 251 251 251 251 243 243 243 255 255 255 244 244 244 255 255 255 250 250 250 253 253 253 243 243 243 247 247 247 245 245 245 255 255 255 255 255 255 251 251 251 251 251 251 255 255 255 251 251 251 249 249 249 248 248 248 255 255 255 245 245 245 255 255 255 244 244 244 255 255 255 250 250 250 255 255 255 252 252 252 254 254 254 255 255 255 248 248 248 252 252 252 255 255 255 255 255 255 255 255 255 255 255 255 255 255 255 255 255 255 255 255 255 255 255 255 255 255 255 255 255 255 255 255 255 255 255 255 255 255 255 255 255 255 255 255 255 255 255 255 255 255 255 255 255 255 255 255 255 255 255 255 255 255 255 
253 253 253 252 252 252 255 255 255 255 255 255 255 255 255 254 254 254 248 248 248 246 246 246 246 246 246 255 255 255 243 243 243 255 255 255 245 245 245 251 251 251 255 255 255 255 255 255 255 255 255 237 237 237 255 255 255 234 234 234 246 246 246 255 255 255 248 248 248 255 255 255 255 255 255 252 252 252 246 246 246 247 247 247 249 249 249 254 254 254 255 255 255 250 250 250 255 255 255 229 229 229 255 255 255 255 255 255 254 254 254 245 245 245 255 255 255 252 252 252 244 244 244 246 246 246 255 255 255 255 255 255 255 255 255 246 246 246 251 251 251 255 255 255 255 255 255 255 255 255 255 255 255 255 255 255 255 255 255 255 255 255 255 255 255 255 255 255 255 255 255 255 255 255 255 255 255 255 255 255 255 255 255 255 255 255 255 255 255 255 255 255 255 255 255 255 255 255 255 255 255 
255 255 255 255 255 255 255 255 255 251 251 251 243 243 243 245 245 245 254 254 254 255 255 255 255 255 255 255 255 255 241 241 241 255 255 255 254 254 254 255 255 255 255 255 255 252 252 252 250 250 250 255 255 255 255 255 255 255 255 255 248 248 248 246 246 246 250 250 250 248 248 248 251 251 251 255 255 255 255 255 255 255 255 255 255 255 255 252 252 252 248 248 248 255 255 255 255 255 255 255 255 255 242 242 242 243 243 243 244 244 244 255 255 255 250 250 250 255 255 255 255 255 255 255 255 255 250 250 250 251 251 251 255 255 255 255 255 255 249 249 249 255 255 255 255 255 255 255 255 255 255 255 255 255 255 255 255 255 255 255 255 255 255 255 255 255 255 255 255 255 255 255 255 255 255 255 255 255 255 255 255 255 255 255 255 255 255 255 255 255 255 255 255 255 255 255 255 255 255 255 255 
252 252 252 255 255 255 254 254 254 249 249 249 255 255 255 255 255 255 255 255 255 244 244 244 251 251 251 237 237 237 255 255 255 240 240 240 244 244 244 242 242 242 234 234 234 251 251 251 252 252 252 242 242 242 227 227 227 255 255 255 246 246 246 255 255 255 246 246 246 255 255 255 241 241 241 255 255 255 245 245 245 238 238 238 255 255 255 254 254 254 242 242 242 255 255 255 253 253 253 251 251 251 255 255 255 253 253 253 255 255 255 245 245 245 237 237 237 248 248 248 230 230 230 255 255 255 250 250 250 236 236 236 255 255 255 255 255 255 249 249 249 254 254 254 255 255 255 255 255 255 255 255 255 255 255 255 255 255 255 255 255 255 255 255 255 255 255 255 255 255 255 255 255 255 255 255 255 255 255 255 255 255 255 255 255 255 255 255 255 255 255 255 255 255 255 255 255 255 255 255 255 
255 255 255 255 255 255 252 252 252 253 253 253 255 255 255 246 246 246 176 176 176 102 102 102 110 110 110 106 106 106 221 221 221 122 122 122 101 101 101 77  77  77  87  87  87  157 157 157 184 184 184 59  59  59  117 117 117 100 100 100 114 114 114 229 229 229 124 124 124 237 237 237 255 255 255 240 240 240 173 173 173 166 166 166 241 241 241 255 255 255 246 246 246 255 255 255 196 196 196 65  65  65  232 232 232 255 255 255 192 192 192 67  67  67  132 132 132 86  86  86  122 122 122 231 231 231 255 255 255 250 250 250 255 255 255 251 251 251 242 242 242 255 255 255 255 255 255 255 255 255 255 255 255 255 255 255 255 255 255 255 255 255 255 255 255 255 255 255 255 255 255 255 255 255 255 255 255 255 255 255 255 255 255 255 255 255 255 255 255 255 255 255 255 255 255 255 255 255 255 255 255 
255 255 255 255 255 255 245 245 245 251 251 251 255 255 255 245 245 245 50  50  50  242 242 242 255 255 255 154 154 154 188 188 188 255 255 255 203 203 203 87  87  87  239 239 239 253 253 253 144 144 144 137 137 137 255 255 255 253 253 253 255 255 255 228 228 228 82  82  82  241 241 241 255 255 255 249 249 249 156 156 156 123 123 123 252 252 252 255 255 255 255 255 255 244 244 244 125 125 125 58  58  58  165 165 165 255 255 255 151 151 151 116 116 116 255 255 255 249 249 249 116 116 116 131 131 131 255 255 255 250 250 250 250 250 250 251 251 251 255 255 255 254 254 254 255 255 255 255 255 255 255 255 255 255 255 255 255 255 255 255 255 255 255 255 255 255 255 255 255 255 255 255 255 255 255 255 255 255 255 255 255 255 255 255 255 255 255 255 255 255 255 255 255 255 255 255 255 255 255 255 255 
238 238 238 255 255 255 255 255 255 241 241 241 255 255 255 241 241 241 127 127 127 88  88  88  169 169 169 212 212 212 255 255 255 255 255 255 239 239 239 81  81  81  245 245 245 255 255 255 135 135 135 99  99  99  190 190 190 158 158 158 211 211 211 255 255 255 80  80  80  248 248 248 253 253 253 255 255 255 157 157 157 127 127 127 251 251 251 242 242 242 255 255 255 231 231 231 110 110 110 214 214 214 98  98  98  245 245 245 174 174 174 94  94  94  225 225 225 236 236 236 87  87  87  170 170 170 243 243 243 254 254 254 255 255 255 255 255 255 255 255 255 244 244 244 255 255 255 255 255 255 255 255 255 255 255 255 255 255 255 255 255 255 255 255 255 255 255 255 255 255 255 255 255 255 255 255 255 255 255 255 255 255 255 255 255 255 255 255 255 255 255 255 255 255 255 255 255 255 255 255 255 
255 255 255 255 255 255 255 255 255 253 253 253 255 255 255 255 255 255 242 242 242 177 177 177 127 127 127 83  83  83  195 195 195 242 242 242 223 223 223 75  75  75  237 237 237 255 255 255 156 156 156 76  76  76  157 157 157 120 120 120 176 176 176 239 239 239 49  49  49  255 255 255 245 245 245 255 255 255 162 162 162 125 125 125 255 255 255 241 241 241 243 243 243 145 145 145 61  61  61  208 208 208 53  53  53  218 218 218 189 189 189 48  48  48  144 144 144 51  51  51  137 137 137 255 255 255 255 255 255 253 253 253 241 241 241 255 255 255 255 255 255 255 255 255 255 255 255 255 255 255 255 255 255 255 255 255 255 255 255 255 255 255 255 255 255 255 255 255 255 255 255 255 255 255 255 255 255 255 255 255 255 255 255 255 255 255 255 255 255 255 255 255 255 255 255 255 255 255 255 255 255 
253 253 253 246 246 246 255 255 255 255 255 255 225 225 225 215 215 215 170 170 170 255 255 255 251 251 251 152 152 152 94  94  94  255 255 255 229 229 229 101 101 101 239 239 239 255 255 255 144 144 144 124 124 124 255 255 255 255 255 255 253 253 253 255 255 255 71  71  71  243 243 243 254 254 254 255 255 255 164 164 164 110 110 110 255 255 255 255 255 255 236 236 236 85  85  85  151 151 151 164 164 164 110 110 110 132 132 132 181 181 181 98  98  98  255 255 255 166 166 166 87  87  87  239 239 239 250 250 250 255 255 255 248 248 248 254 254 254 253 253 253 254 254 254 255 255 255 255 255 255 255 255 255 255 255 255 255 255 255 255 255 255 255 255 255 255 255 255 255 255 255 255 255 255 255 255 255 255 255 255 255 255 255 255 255 255 255 255 255 255 255 255 255 255 255 255 255 255 255 255 255 
255 255 255 253 253 253 251 251 251 255 255 255 255 255 255 255 255 255 88  88  88  88  88  88  132 132 132 69  69  69  232 232 232 255 255 255 223 223 223 86  86  86  253 253 253 245 245 245 144 144 144 79  79  79  117 117 117 101 101 101 125 125 125 205 205 205 78  78  78  104 104 104 110 110 110 163 163 163 164 164 164 76  76  76  114 114 114 116 116 116 142 142 142 115 115 115 255 255 255 233 233 233 228 228 228 106 106 106 168 168 168 129 129 129 245 245 245 255 255 255 94  94  94  185 185 185 243 243 243 255 255 255 255 255 255 255 255 255 255 255 255 249 249 249 255 255 255 255 255 255 255 255 255 255 255 255 255 255 255 255 255 255 255 255 255 255 255 255 255 255 255 255 255 255 255 255 255 255 255 255 255 255 255 255 255 255 255 255 255 255 255 255 255 255 255 255 255 255 255 255 255 
243 243 243 254 254 254 252 252 252 244 244 244 246 246 246 255 255 255 248 248 248 233 233 233 197 197 197 255 255 255 230 230 230 254 254 254 255 255 255 214 214 214 255 255 255 255 255 255 239 239 239 203 203 203 218 218 218 211 211 211 202 202 202 247 247 247 223 223 223 215 215 215 212 212 212 224 224 224 244 244 244 202 202 202 219 219 219 210 210 210 222 222 222 240 240 240 243 243 243 255 255 255 255 255 255 220 220 220 235 235 235 231 231 231 239 239 239 255 255 255 234 234 234 226 226 226 255 255 255 247 247 247 250 250 250 255 255 255 255 255 255 255 255 255 255 255 255 255 255 255 255 255 255 255 255 255 255 255 255 255 255 255 255 255 255 255 255 255 255 255 255 255 255 255 255 255 255 255 255 255 255 255 255 255 255 255 255 255 255 255 255 255 255 255 255 255 255 255 255 255 255 
255 255 255 255 255 255 255 255 255 255 255 255 255 255 255 236 236 236 255 255 255 238 238 238 255 255 255 252 252 252 254 254 254 254 254 254 255 255 255 255 255 255 249 249 249 248 248 248 255 255 255 245 245 245 249 249 249 255 255 255 255 255 255 247 247 247 255 255 255 248 248 248 243 243 243 250 250 250 255 255 255 255 255 255 255 255 255 242 242 242 246 246 246 255 255 255 255 255 255 255 255 255 245 245 245 255 255 255 243 243 243 255 255 255 255 255 255 255 255 255 255 255 255 245 245 245 255 255 255 249 249 249 255 255 255 255 255 255 250 250 250 251 251 251 255 255 255 255 255 255 255 255 255 255 255 255 255 255 255 255 255 255 255 255 255 255 255 255 255 255 255 255 255 255 255 255 255 255 255 255 255 255 255 255 255 255 255 255 255 255 255 255 255 255 255 255 255 255 255 255 255 
253 253 253 255 255 255 243 243 243 252 252 252 255 255 255 249 249 249 250 250 250 250 250 250 254 254 254 246 246 246 255 255 255 255 255 255 244 244 244 244 244 244 251 251 251 255 255 255 250 252 251 254 255 255 250 251 253 237 239 238 255 255 255 242 242 242 255 255 255 245 245 245 248 248 250 255 254 255 243 241 244 252 250 251 253 248 252 255 251 252 255 253 255 248 244 245 255 251 255 255 254 255 253 251 254 248 246 247 255 254 255 241 239 240 255 254 255 244 242 243 248 246 249 255 255 255 250 250 252 250 250 250 255 255 255 250 250 250 245 245 247 255 255 255 255 255 255 255 255 255 255 255 255 255 255 255 255 255 255 255 255 255 255 255 255 255 255 255 255 255 255 255 255 255 255 255 255 255 255 255 255 255 255 255 255 255 255 255 255 255 255 255 255 255 255 255 255 255 255 255 255 
253 253 253 255 255 255 250 250 250 255 255 255 255 255 255 254 254 254 248 248 248 255 255 255 244 244 244 255 255 255 255 255 255 246 246 246 255 255 255 247 247 247 255 255 255 247 249 248 237 241 242 252 255 255 235 239 242 249 253 254 254 255 255 246 247 249 251 250 255 251 251 253 241 239 244 255 253 255 255 252 255 253 244 249 255 251 255 255 248 255 255 242 251 255 250 255 255 245 253 255 252 255 255 252 255 251 245 249 255 252 255 255 251 255 252 247 253 255 252 255 255 253 255 255 254 255 246 244 249 250 248 251 255 254 255 248 248 250 254 255 255 250 251 253 255 255 255 252 252 252 255 255 255 250 250 250 244 244 244 255 255 255 255 255 255 251 251 251 255 255 255 255 255 255 255 255 255 255 255 255 255 255 255 255 255 255 255 255 255 255 255 255 255 255 255 255 255 255 255 255 255 
255 255 255 245 245 245 254 254 254 255 255 255 245 245 245 255 255 255 182 182 182 134 134 134 156 156 156 131 131 131 234 234 234 255 255 255 190 190 190 129 129 129 152 152 152 239 241 240 252 255 255 182 186 189 141 145 148 143 147 150 130 134 137 202 203 207 249 250 254 149 148 153 153 151 156 145 140 146 136 129 136 218 208 216 196 185 193 157 146 154 158 145 154 130 117 126 237 226 234 240 230 238 183 173 181 135 128 135 139 132 139 136 129 136 188 181 188 255 253 255 200 195 201 128 126 131 154 152 157 217 216 221 255 254 255 230 231 235 174 175 179 138 139 141 174 174 174 233 233 233 255 255 255 255 255 255 255 255 255 243 243 243 255 255 255 255 255 255 255 255 255 255 255 255 255 255 255 255 255 255 255 255 255 255 255 255 255 255 255 255 255 255 255 255 255 255 255 255 255 255 255 
249 249 249 253 253 253 255 255 255 255 255 255 255 255 255 231 231 231 76  76  76  141 141 141 180 180 180 153 153 153 249 249 249 142 142 142 55  55  55  187 187 187 138 138 138 74  74  74  254 255 255 125 126 128 93  94  96  190 191 193 159 160 162 67  68  70  209 210 212 174 175 177 121 121 123 70  70  72  178 178 180 228 226 229 77  75  78  123 121 124 175 173 176 166 161 165 82  77  81  255 253 255 81  76  80  150 145 149 208 203 207 171 169 172 215 213 216 206 206 208 82  82  84  208 209 211 158 159 161 89  93  94  230 234 235 128 132 133 131 135 136 193 197 198 90  92  91  171 171 171 250 250 250 253 253 253 241 241 241 252 252 252 255 255 255 255 255 255 255 255 255 255 255 255 255 255 255 255 255 255 255 255 255 255 255 255 255 255 255 255 255 255 255 255 255 255 255 255 255 255 255 
255 255 255 255 255 255 250 250 250 243 243 243 255 255 255 249 249 249 82  82  82  255 255 255 242 242 242 255 255 255 241 241 241 63  63  63  255 255 255 255 255 255 255 255 255 96  96  96  182 182 184 133 133 135 162 162 164 255 255 255 239 239 241 107 108 110 172 173 175 254 255 255 177 178 180 98  102 103 251 255 255 252 255 255 99  103 104 202 206 207 252 255 255 240 244 245 66  66  68  227 225 226 113 111 114 194 194 194 242 240 243 245 245 245 253 253 255 194 196 195 65  66  68  213 217 216 252 255 255 229 233 232 251 255 255 81  87  85  142 148 148 252 255 255 250 252 251 247 247 247 233 233 233 255 255 255 255 255 255 255 255 255 242 242 242 255 255 255 255 255 255 255 255 255 255 255 255 255 255 255 255 255 255 255 255 255 255 255 255 255 255 255 255 255 255 255 255 255 255 255 255 
255 255 255 246 246 246 255 255 255 255 255 255 254 254 254 254 254 254 30  30  30  111 111 111 120 120 120 120 120 120 189 189 189 94  94  94  252 252 252 226 226 226 242 242 242 171 171 171 120 118 121 163 161 164 77  75  78  121 121 123 89  89  91  106 106 108 253 254 255 245 246 248 160 164 165 128 134 134 247 253 253 247 255 255 85  94  93  75  85  84  120 130 129 69  78  77  128 132 131 251 251 249 75  75  75  76  78  75  131 131 131 82  84  81  195 197 196 252 255 253 168 172 171 81  86  82  94  98  97  138 144 140 251 255 255 241 247 243 101 110 107 69  75  73  99  101 100 224 224 224 255 255 255 252 252 252 255 255 255 252 252 252 255 255 255 244 244 244 255 255 255 255 255 255 255 255 255 255 255 255 255 255 255 255 255 255 255 255 255 255 255 255 255 255 255 255 255 255 255 255 255 
255 255 255 255 255 255 252 252 252 255 255 255 253 253 253 250 250 250 72  72  72  191 191 191 198 198 198 220 220 220 214 214 214 65  65  65  253 253 253 255 255 255 255 255 255 103 103 103 188 186 189 144 142 145 110 108 111 232 230 233 74  74  76  188 188 190 255 255 255 252 253 255 180 181 183 97  101 102 241 245 246 248 254 254 107 116 115 155 165 164 192 202 201 64  73  70  215 220 216 254 255 253 99  99  97  200 202 199 243 243 241 254 255 253 254 255 253 205 210 206 244 246 243 241 246 242 242 247 243 79  84  80  168 173 169 215 220 216 250 255 252 252 255 253 158 160 159 82  82  82  245 245 245 250 250 250 255 255 255 241 241 241 255 255 255 255 255 255 255 255 255 255 255 255 255 255 255 255 255 255 255 255 255 255 255 255 255 255 255 255 255 255 255 255 255 255 255 255 255 255 255 
235 235 235 255 255 255 255 255 255 255 255 255 255 255 255 223 223 223 93  93  93  251 251 251 255 255 255 245 245 245 249 249 249 134 134 134 83  83  83  180 180 180 136 136 136 87  87  87  250 250 250 110 110 110 168 168 168 251 251 251 217 215 216 72  70  71  240 238 239 249 247 248 173 171 172 108 108 108 255 255 255 243 245 244 82  84  83  191 195 194 249 253 252 173 177 176 76  76  74  255 255 253 63  62  60  165 165 163 187 186 184 187 187 185 211 211 209 183 185 182 65  65  63  199 201 198 195 197 194 68  70  67  222 224 221 111 113 110 117 119 116 189 191 188 155 155 155 82  82  82  255 255 255 255 255 255 242 242 242 251 251 251 252 252 252 251 251 251 255 255 255 255 255 255 255 255 255 255 255 255 255 255 255 255 255 255 255 255 255 255 255 255 255 255 255 255 255 255 255 255 255 
255 255 255 255 255 255 245 245 245 255 255 255 247 247 247 255 255 255 172 172 172 235 235 235 254 254 254 255 255 255 251 251 251 255 255 255 175 175 175 145 145 145 142 142 142 238 240 239 254 255 255 197 201 200 198 200 199 255 255 255 255 253 254 168 166 167 206 202 203 255 253 255 203 197 199 215 209 211 245 239 241 255 254 255 187 183 184 225 223 224 255 254 255 255 254 255 159 158 156 228 227 225 194 190 189 115 114 112 145 141 140 142 141 139 155 154 152 255 255 253 191 190 188 129 128 126 145 144 142 201 200 198 255 255 253 231 230 228 162 161 159 138 137 135 156 156 156 254 254 254 248 248 248 249 249 249 255 255 255 250 250 250 255 255 255 255 255 255 255 255 255 255 255 255 255 255 255 255 255 255 255 255 255 255 255 255 255 255 255 255 255 255 255 255 255 255 255 255 255 255 255 
255 255 255 255 255 255 255 255 255 255 255 255 255 255 255 254 254 254 254 254 254 254 254 254 252 252 252 254 254 254 255 255 255 255 255 255 255 255 255 255 255 255 254 254 254 251 253 252 251 255 255 246 255 252 250 255 254 254 255 255 249 249 249 255 252 253 255 253 255 255 252 255 255 250 254 255 248 252 255 251 255 255 251 255 255 246 250 255 251 255 255 251 255 255 246 249 254 248 248 255 252 251 252 246 246 250 246 245 255 253 253 255 253 252 253 249 248 255 254 253 255 253 252 255 254 253 255 254 253 248 244 243 255 253 253 255 253 253 255 253 253 253 249 248 255 254 255 250 250 250 255 255 255 255 255 255 253 253 253 251 251 251 255 255 255 255 255 255 255 255 255 255 255 255 252 252 252 250 250 250 252 252 252 255 255 255 255 255 255 255 255 255 255 255 255 255 255 255 255 255 255 
255 255 255 255 255 255 255 255 255 255 255 255 255 255 255 254 254 254 254 254 254 254 254 254 255 255 255 255 255 255 253 253 253 252 252 252 253 253 253 254 254 254 255 255 255 254 255 255 245 254 251 245 255 252 247 255 253 251 255 254 253 253 253 255 251 252 254 248 250 255 244 248 255 248 252 255 246 250 255 251 255 255 251 255 255 249 253 255 251 255 255 251 255 255 249 252 253 247 249 255 254 253 255 254 255 255 253 252 255 254 255 255 254 253 255 251 252 255 253 252 255 249 251 255 249 249 254 248 250 255 253 253 255 250 252 255 250 250 255 246 249 255 251 253 255 254 255 244 244 244 253 253 253 255 255 255 250 250 250 255 255 255 255 255 255 249 249 249 253 253 253 255 255 255 255 255 255 255 255 255 255 255 255 255 255 255 254 254 254 252 252 252 255 255 255 255 255 255 255 255 255 
255 255 255 255 255 255 255 255 255 255 255 255 255 255 255 254 254 254 254 254 254 254 254 254 255 255 255 255 255 255 254 254 254 251 251 251 248 248 248 248 248 248 248 248 248 247 249 248 247 255 251 248 255 253 249 255 253 252 255 253 255 255 253 255 254 253 255 250 250 255 251 252 255 252 253 255 245 246 255 247 248 255 248 249 249 240 241 249 243 243 255 252 251 254 252 253 248 248 248 255 255 255 255 254 255 250 248 249 248 246 249 252 250 251 253 251 254 251 249 250 252 247 251 250 246 247 245 240 244 255 254 255 255 250 254 255 253 254 250 244 248 255 254 255 248 246 247 249 249 249 255 255 255 255 255 255 251 251 251 249 249 249 250 250 250 246 246 246 245 245 245 248 248 248 252 252 252 253 253 253 252 252 252 253 253 253 255 255 255 255 255 255 255 255 255 255 255 255 255 255 255 
255 255 255 255 255 255 255 255 255 255 255 255 255 255 255 254 254 254 254 254 254 254 254 254 251 251 251 253 253 253 255 255 255 255 255 255 255 255 255 255 255 255 255 255 255 254 255 255 244 253 248 249 255 253 244 250 246 245 247 244 255 255 253 255 255 253 255 251 251 255 253 253 255 253 253 255 254 253 255 255 253 254 255 253 252 255 253 246 255 250 248 255 253 248 255 255 249 255 255 251 255 255 252 255 255 248 252 253 246 250 253 252 255 255 254 255 255 252 253 255 254 255 255 254 255 255 254 253 255 255 255 255 255 254 255 255 255 255 252 251 255 253 253 255 249 249 249 255 255 255 255 255 255 239 239 239 255 255 255 255 255 255 250 250 250 255 255 255 255 255 255 255 255 255 255 255 255 255 255 255 254 254 254 254 254 254 254 254 254 255 255 255 255 255 255 255 255 255 255 255 255 
255 255 255 255 255 255 255 255 255 255 255 255 255 255 255 254 254 254 254 254 254 254 254 254 255 255 255 255 255 255 255 255 255 254 254 254 253 253 253 251 251 251 250 250 250 249 251 250 252 255 253 252 255 253 254 255 253 253 253 251 253 252 250 250 249 247 248 247 245 250 250 248 246 251 247 240 249 244 240 253 246 226 246 237 200 226 215 186 216 204 179 213 199 171 201 191 189 208 206 177 191 191 176 190 191 181 195 195 185 196 198 193 205 205 191 201 203 172 182 183 195 205 207 192 202 203 209 217 220 191 199 201 233 238 242 237 242 245 251 255 255 242 246 249 244 245 247 255 255 255 255 255 255 253 253 253 254 254 254 255 255 255 251 251 251 238 238 238 252 252 252 251 251 251 252 252 252 255 255 255 255 255 255 255 255 255 255 255 255 250 250 250 255 255 255 255 255 255 255 255 255 
255 255 255 255 255 255 255 255 255 255 255 255 255 255 255 254 254 254 254 254 254 254 254 254 255 255 255 255 255 255 254 254 254 251 251 251 250 250 250 252 252 252 254 254 254 255 255 255 248 248 246 247 247 245 255 255 253 255 255 253 250 249 247 248 248 246 253 255 252 245 251 247 210 223 216 189 209 200 152 180 168 95  131 117 42  86  69  20  71  52  11  66  45  0   48  32  50  81  75  28  50  48  30  51  52  47  69  67  49  69  70  49  69  68  42  60  62  17  35  35  38  56  58  37  55  55  66  81  84  36  52  52  93  107 110 96  110 111 128 142 145 105 115 117 161 165 166 158 158 158 204 204 204 207 207 207 160 160 160 202 202 202 255 255 255 255 255 255 255 255 255 254 254 254 250 250 250 249 249 249 251 251 251 255 255 255 255 255 255 255 255 255 255 255 255 255 255 255 255 255 255 
255 255 255 255 255 255 255 255 255 255 255 255 255 255 255 254 254 254 254 254 254 254 254 254 250 250 250 251 251 251 253 253 253 255 255 255 255 255 255 254 254 254 253 253 253 253 251 252 255 254 253 236 231 228 236 231 228 212 208 205 155 151 148 131 132 127 130 137 130 106 119 110 63  85  73  62  93  78  47  90  71  12  66  43  0   56  31  15  85  57  34  110 80  32  100 77  55  98  89  19  49  47  16  46  46  36  66  64  30  58  59  25  54  52  27  53  54  12  38  37  14  38  40  12  36  36  30  51  54  0   19  20  25  44  48  10  30  31  26  45  49  9   25  25  27  33  33  34  34  34  55  55  55  32  32  32  0   0   0   66  66  66  175 175 175 215 215 215 251 251 251 255 255 255 255 255 255 255 255 255 254 254 254 249 249 249 249 249 249 251 251 251 255 255 255 255 255 255 255 255 255 
254 255 251 254 255 251 254 255 251 255 255 251 255 255 251 255 254 250 255 254 250 255 254 252 254 253 251 254 253 251 249 249 249 236 238 237 212 216 215 183 189 189 157 163 163 139 148 145 91  102 94  63  79  68  73  95  82  62  93  75  10  52  28  14  67  37  43  108 74  27  101 64  22  104 64  48  139 96  70  165 121 64  163 119 64  163 119 89  190 148 98  199 159 85  170 141 72  125 119 26  61  67  14  49  53  28  63  65  15  51  49  11  46  42  24  59  55  23  58  52  15  51  47  17  53  51  32  67  69  19  56  62  26  63  72  9   47  60  18  55  71  16  53  72  22  54  79  64  94  120 43  70  97  4   30  55  15  39  63  23  45  68  26  44  64  55  71  87  122 134 148 160 170 180 213 218 224 247 251 254 255 255 255 255 255 253 255 251 248 254 250 247 254 255 255 252 255 255 252 255 255 
245 254 237 251 255 243 242 249 233 246 250 235 253 253 241 254 252 240 255 255 246 239 232 226 238 230 227 125 120 117 87  87  85  97  101 100 57  67  66  67  83  82  45  65  64  33  63  55  19  66  46  0   61  31  0   74  34  5   112 60  15  146 80  14  171 92  25  203 115 44  235 140 32  230 133 38  236 139 52  241 151 53  226 144 74  230 157 69  209 146 58  185 130 0   88  54  0   50  54  16  54  75  19  58  73  18  59  65  19  61  59  14  57  48  10  54  41  14  62  46  7   57  45  8   61  53  8   63  66  4   64  75  0   62  87  2   66  101 8   75  117 11  84  139 27  111 184 28  115 195 34  117 197 36  115 192 30  102 176 20  85  153 9   65  126 5   52  104 13  50  92  20  49  79  55  72  92  114 122 133 171 171 173 211 204 198 246 233 224 255 253 244 248 252 253 242 253 255 242 251 255 
251 255 246 241 249 236 247 255 242 252 255 246 254 255 243 203 203 191 134 132 120 96  94  82  88  90  77  76  87  73  94  117 101 131 168 150 87  141 117 68  137 109 55  134 103 32  124 87  4   106 58  34  152 92  56  193 123 46  209 126 30  221 125 22  238 129 9   246 128 0   241 119 9   255 137 0   231 117 28  244 145 35  227 142 30  191 123 0   130 74  0   96  53  0   65  40  2   66  68  8   60  74  6   58  69  3   58  61  4   60  59  5   64  58  9   70  63  11  76  72  0   69  71  0   68  81  0   64  90  0   65  105 0   73  128 4   93  161 27  119 196 40  137 231 16  126 239 13  127 249 14  127 245 18  128 243 21  126 235 26  123 226 31  120 214 37  118 200 42  112 182 30  89  147 13  57  102 0   27  60  0   11  35  21  33  47  88  92  101 145 150 154 247 255 255 240 254 255 244 255 255 
248 251 255 234 239 243 218 223 227 136 142 142 80  86  84  84  91  84  88  94  84  115 128 111 96  120 96  86  127 95  35  104 60  24  123 68  0   124 58  0   159 80  29  217 130 28  221 128 59  234 139 53  228 127 40  227 122 34  238 125 30  252 133 24  255 135 10  252 131 2   243 126 25  255 147 19  228 134 47  227 154 16  165 110 0   100 67  0   61  44  0   53  49  11  71  69  0   62  51  0   63  47  0   71  59  0   79  70  0   73  72  0   69  75  0   65  82  0   52  82  0   64  108 0   80  138 4   102 177 18  119 209 21  126 231 18  125 241 12  122 245 8   119 252 7   118 255 4   116 255 0   115 255 0   116 255 0   118 252 3   122 250 8   127 247 15  129 241 25  133 234 35  134 225 39  128 208 32  110 182 13  78  142 0   43  102 0   15  68  0   6   44  121 141 148 202 213 205 249 255 251 
213 210 227 93  97  109 27  42  49  51  77  76  107 149 137 116 170 147 71  136 104 55  132 90  44  134 83  50  158 96  30  162 87  36  192 108 40  226 129 35  245 138 21  254 139 0   236 116 19  242 123 20  239 119 19  244 122 15  248 123 4   240 116 0   231 109 6   239 122 31  252 146 32  233 141 4   180 107 0   129 76  0   76  43  0   61  47  11  69  71  23  60  76  13  56  65  6   76  65  0   69  50  0   65  54  0   63  64  0   58  73  0   69  99  0   86  133 0   86  150 2   107 188 6   115 210 13  125 235 16  130 252 13  130 255 6   126 255 0   120 255 0   116 255 3   123 255 3   125 255 1   125 255 0   126 255 0   125 255 0   124 255 0   124 255 0   121 250 1   125 247 4   123 239 8   120 228 19  125 227 37  134 231 40  131 222 17  102 192 4   67  134 0   5   30  89  96  102 187 190 197 
23  14  31  23  30  40  21  56  52  43  112 93  25  135 96  0   135 78  6   181 106 27  221 134 39  243 146 34  245 142 42  252 145 25  235 125 31  242 129 31  242 127 16  229 113 23  248 130 0   239 120 2   255 137 5   255 139 1   248 131 12  248 137 34  255 151 38  243 148 28  214 130 0   151 81  0   111 57  0   69  32  0   68  45  5   68  60  13  58  63  18  50  63  20  58  71  0   59  64  0   62  66  0   66  80  0   70  99  0   78  125 0   95  159 17  117 202 22  129 227 20  130 243 14  128 252 5   124 254 0   120 253 0   119 255 0   123 255 4   128 255 4   135 255 0   129 255 0   133 255 0   135 255 0   136 255 2   136 255 3   133 255 4   130 255 5   127 255 1   119 255 10  127 255 14  129 255 9   125 248 9   124 243 12  127 242 5   121 232 13  100 193 57  83  144 54  51  96  34  26  73  
10  63  45  67  135 110 67  161 124 55  184 130 39  206 136 31  234 145 29  255 156 0   224 110 0   248 127 0   237 112 8   255 133 0   235 115 18  243 125 27  241 127 22  228 117 40  255 145 25  255 158 0   250 144 0   233 130 10  238 141 38  245 157 36  221 143 2   163 95  0   107 53  0   77  35  0   75  44  0   69  50  1   66  58  5   61  60  17  64  72  2   44  56  15  62  80  0   55  75  2   76  105 9   87  126 17  100 154 30  118 190 25  121 208 12  115 220 13  122 239 2   117 244 0   121 252 4   126 255 6   130 255 7   132 255 4   130 253 0   126 247 0   126 244 0   126 244 0   127 246 0   126 248 0   126 251 0   125 255 1   125 255 6   123 255 10  123 255 13  122 255 21  126 255 20  122 255 12  111 254 11  108 251 21  116 255 32  128 255 57  124 255 82  93  211 73  55  167 53  30  144 
35  219 131 38  227 135 40  234 138 39  244 143 24  237 131 7   231 117 16  251 132 28  255 150 11  255 134 1   249 126 15  255 138 10  247 131 32  255 149 25  245 139 24  234 133 11  221 124 15  232 143 13  224 143 39  234 158 67  240 176 48  195 141 0   116 75  0   69  42  0   69  51  12  73  66  0   45  45  15  66  70  2   55  63  25  83  94  75  139 151 0   68  80  13  85  107 62  129 172 70  139 196 44  118 183 30  109 184 46  136 224 33  131 232 7   113 223 12  127 244 10  130 253 4   128 252 0   126 246 0   124 239 0   126 233 1   129 230 4   131 226 9   131 230 16  128 238 17  126 243 15  126 244 12  125 247 10  124 249 10  123 253 10  121 255 15  118 255 24  120 255 29  114 255 36  106 255 40  98  255 44  88  255 41  73  244 30  53  227 28  34  216 35  13  210 55  17  224 59  17  225 
8   255 134 0   244 112 7   255 126 7   252 121 14  253 123 22  255 129 0   239 109 8   252 121 3   252 122 6   255 128 2   250 128 2   243 128 27  254 149 31  245 147 76  255 187 59  246 165 77  251 179 90  248 187 95  236 183 82  203 162 58  152 126 51  123 111 82  133 136 121 158 174 52  84  107 10  41  72  90  128 164 82  132 167 75  139 174 99  178 211 4   93  125 107 195 235 112 184 243 126 194 255 89  162 239 69  151 235 92  183 255 61  163 255 9   119 230 8   127 243 4   129 247 0   129 248 0   130 246 0   131 242 4   132 241 4   133 235 5   131 231 10  125 231 19  113 235 29  112 244 33  115 251 36  117 255 35  116 255 33  111 255 31  104 255 33  96  255 27  79  250 24  65  243 22  48  233 23  34  224 26  22  220 31  17  218 41  16  221 51  17  235 56  13  253 49  0   252 48  0   252 
0   255 121 0   255 116 0   255 113 0   252 110 7   250 110 10  248 110 10  252 114 8   255 120 0   255 118 3   255 132 0   246 119 0   242 128 42  255 163 59  255 169 73  248 171 101 248 180 125 240 183 127 220 173 60  142 104 50  120 96  62  115 107 111 151 159 130 157 184 105 128 169 48  73  127 22  54  115 102 145 213 50  107 178 121 193 255 58  144 217 27  125 196 71  168 239 88  165 237 77  149 221 84  161 239 107 194 255 94  192 255 45  152 246 8   124 225 2   127 235 0   127 241 0   128 247 0   131 254 0   132 255 3   132 255 3   132 255 5   129 255 14  124 255 38  118 255 44  105 255 40  94  255 33  78  255 30  61  247 26  46  239 26  33  235 30  25  233 35  18  234 42  14  236 47  12  238 51  9   239 55  7   241 56  6   241 58  5   241 58  5   245 56  4   252 56  3   255 58  2   255 
0   255 114 0   255 114 0   255 115 4   255 117 14  255 118 12  252 115 2   249 109 0   247 107 0   247 108 0   255 126 6   255 139 10  246 135 41  244 152 75  248 169 111 251 190 111 221 172 85  163 124 92  152 126 62  119 102 51  103 99  59  105 118 63  107 134 82  125 168 64  109 168 35  83  155 41  98  179 86  151 241 81  157 251 79  166 255 59  155 255 16  120 219 67  170 255 80  175 255 65  156 237 60  155 239 71  171 255 64  169 255 36  144 243 20  131 239 25  136 252 21  130 255 20  126 255 21  119 255 18  110 255 18  101 255 15  92  255 12  85  255 19  79  255 7   43  239 15  36  239 17  32  239 21  26  239 26  21  238 33  15  239 39  10  240 46  6   243 56  5   248 61  2   250 65  0   250 68  0   252 69  0   252 70  0   252 70  0   254 68  0   254 62  0   255 59  2   255 59  1   255 
0   255 128 0   255 127 0   252 124 2   251 123 11  252 122 13  254 124 8   255 123 1   255 122 3   255 130 0   248 121 13  255 140 16  231 130 59  232 152 92  228 164 86  185 139 4   80  50  6   70  56  6   66  66  3   67  76  0   54  72  0   65  95  0   56  100 16  109 166 34  133 201 26  128 210 23  131 221 15  123 222 35  142 248 6   112 222 26  131 246 0   96  214 12  122 233 6   128 229 0   121 218 0   122 222 13  131 237 20  132 244 16  119 240 16  109 240 27  106 250 29  91  250 37  80  255 42  66  255 44  52  255 47  36  255 47  24  255 47  15  255 47  11  255 46  8   251 46  8   249 44  9   251 45  10  252 45  12  253 48  13  255 51  12  255 53  13  255 51  6   255 55  4   255 61  1   255 66  0   255 72  0   255 76  0   255 79  0   255 76  0   255 65  0   255 61  0   255 61  0   255 
0   255 137 0   255 137 3   255 134 1   249 127 1   247 124 3   249 126 3   253 129 4   254 131 14  255 142 0   219 109 29  240 145 48  229 152 48  187 132 0   99  60  0   62  41  0   51  46  4   63  77  0   51  79  0   59  94  0   83  127 28  125 178 22  132 195 19  139 215 5   131 218 9   137 236 0   125 232 0   112 227 5   119 241 7   112 239 27  124 255 38  129 255 24  114 250 33  129 255 27  124 255 26  117 255 27  112 255 27  102 253 24  88  246 25  73  241 29  61  240 22  36  229 32  28  237 42  17  241 48  7   247 56  0   252 62  0   255 68  0   255 69  0   255 73  2   255 67  4   255 64  2   255 59  2   255 57  1   255 53  2   255 52  3   255 52  3   255 55  4   255 56  3   255 61  1   255 63  0   255 68  0   255 72  0   255 75  0   255 72  0   255 65  0   255 61  0   255 62  0   255 
1   245 132 8   255 141 9   255 144 3   255 139 0   252 132 0   251 133 0   248 133 2   242 135 13  237 141 50  249 168 59  227 166 0   120 80  0   75  57  0   61  60  12  56  69  20  64  93  3   67  113 18  99  155 37  125 188 42  140 211 15  122 204 5   123 213 0   121 223 9   136 249 0   124 245 6   125 255 24  134 255 32  131 255 28  113 255 26  100 249 54  118 255 39  84  248 49  68  255 52  54  255 40  41  247 29  27  235 24  18  230 28  17  231 32  15  233 36  11  234 41  10  238 46  6   242 51  3   245 56  2   248 60  1   253 65  2   255 70  4   255 72  6   255 61  0   253 59  0   251 60  0   249 61  0   248 62  0   248 63  0   249 66  0   250 66  0   250 66  0   252 65  0   252 63  1   252 61  2   252 59  3   252 58  3   252 56  4   254 56  4   252 61  2   254 62  1   252 63  0   254 
7   245 131 9   252 134 2   254 135 0   248 128 0   251 132 5   255 144 20  255 153 31  245 157 45  230 162 3   156 109 0   90  67  0   65  63  19  95  111 51  112 143 46  97  140 98  151 205 111 179 242 88  165 235 70  151 230 81  166 255 72  161 255 79  173 255 33  128 255 20  112 255 24  111 255 29  106 255 24  90  255 37  92  255 12  54  236 23  55  238 23  45  229 13  15  212 40  9   234 52  3   243 52  3   243 52  1   244 56  2   248 61  6   255 68  9   255 68  9   255 64  3   255 63  2   255 62  1   254 62  1   252 61  1   249 61  1   249 61  3   248 61  2   250 64  3   254 64  1   255 66  1   253 67  0   253 71  0   254 73  0   255 76  1   254 75  2   255 69  0   250 68  0   250 63  1   250 61  2   252 58  3   252 54  5   254 52  6   254 54  6   252 59  3   252 62  1   252 63  1   252 
13  254 124 8   253 122 0   249 117 0   245 117 0   250 126 12  250 139 19  228 137 21  196 129 0   109 69  0   76  63  0   60  73  7   73  108 38  108 159 109 188 247 89  178 244 114 201 255 109 178 245 100 159 229 118 173 255 133 183 255 123 167 255 95  132 255 45  73  235 40  61  242 50  59  255 40  41  253 24  16  237 39  24  251 28  6   237 59  31  255 47  15  248 46  6   242 52  2   239 60  2   244 67  7   253 71  9   255 71  5   255 65  0   255 62  0   255 59  0   252 68  0   255 67  0   255 65  0   255 61  0   250 59  0   245 56  0   238 53  0   233 54  0   236 63  1   252 64  0   254 64  0   253 63  0   252 63  0   251 63  0   251 63  0   251 63  0   251 65  0   255 65  0   255 63  0   255 62  0   255 62  0   255 62  0   255 61  1   255 61  1   255 62  0   255 62  0   255 63  0   255 
5   251 106 8   253 116 9   253 131 14  251 145 22  246 157 14  218 147 0   155 107 0   92  69  0   83  96  9   81  121 47  100 166 65  113 197 45  99  195 120 187 255 79  161 255 66  138 249 116 156 255 94  115 232 121 136 255 118 126 255 113 113 255 61  52  231 31  13  211 47  20  236 43  6   234 41  0   236 58  9   255 52  0   251 51  0   250 58  1   255 55  0   253 68  7   255 67  5   252 63  2   246 63  0   248 66  0   254 66  0   255 65  0   255 69  0   255 75  0   255 67  0   255 67  0   255 67  0   255 68  3   255 66  6   252 66  8   250 63  9   243 65  8   247 62  0   251 63  0   255 64  0   255 64  0   255 63  0   255 64  1   255 65  2   255 66  3   255 63  0   255 63  0   255 63  0   255 63  0   255 65  0   255 65  0   255 65  0   255 65  0   255 63  0   255 62  0   255 63  0   255 
3   253 93  3   243 106 25  243 156 36  232 182 0   169 150 0   95  100 0   85  108 17  117 166 42  119 201 56  116 226 60  107 239 58  96  241 67  100 253 75  105 255 52  78  249 25  35  220 39  21  221 49  15  224 50  14  226 49  12  229 51  10  234 51  8   237 53  6   242 54  5   245 58  4   250 58  3   252 59  2   255 61  1   255 61  1   255 61  1   255 62  0   255 62  1   255 63  0   254 63  1   252 63  0   254 65  0   255 65  0   255 65  0   255 66  0   255 66  0   255 66  0   255 65  0   255 65  0   255 63  0   255 63  0   254 62  1   252 62  2   250 62  1   252 63  0   254 63  0   255 65  0   255 63  0   255 63  0   255 63  0   255 63  0   255 63  0   255 63  0   255 63  0   255 63  0   255 63  0   255 63  0   255 63  0   255 63  0   255 63  0   255 63  0   255 63  0   255 63  0   255 
34  244 135 45  240 161 29  194 177 0   128 158 0   95  162 27  107 196 52  114 215 52  98  220 40  75  229 41  67  242 29  46  238 18  25  227 26  23  226 43  29  240 47  21  244 40  2   237 59  4   253 63  2   255 63  2   255 62  1   255 62  1   255 61  0   254 61  0   254 61  0   254 62  1   255 62  1   255 62  1   255 62  1   255 62  1   255 62  1   255 62  1   255 62  1   255 63  0   255 63  0   255 63  0   255 63  0   255 63  0   255 63  0   255 63  0   255 63  0   255 63  0   255 63  0   255 63  0   255 63  0   255 63  0   255 63  0   255 63  0   255 63  0   255 63  0   255 63  0   255 63  0   255 63  0   255 63  0   255 63  0   255 63  0   255 63  0   255 63  0   255 63  0   255 63  0   255 63  0   255 63  0   255 63  0   255 63  0   255 63  0   255 63  0   255 63  0   255 63  0   255 
47  172 178 42  155 189 31  114 206 23  76  214 38  63  228 57  61  244 53  42  232 34  11  215 51  20  246 55  17  255 53  13  255 50  4   253 54  0   248 63  1   252 72  0   255 71  0   255 66  0   255 63  2   255 62  1   255 62  1   255 62  1   255 62  1   255 61  0   254 61  0   254 62  1   255 62  1   255 62  1   255 62  1   255 62  1   255 62  1   255 62  1   255 62  1   255 63  0   255 63  0   255 63  0   255 63  0   255 63  0   255 63  0   255 63  0   255 63  0   255 63  0   255 63  0   255 63  0   255 63  0   255 63  0   255 63  0   255 63  0   255 63  0   255 63  0   255 63  0   255 63  0   255 63  0   255 63  0   255 63  0   255 63  0   255 63  0   255 63  0   255 63  0   255 63  0   255 63  0   255 63  0   255 63  0   255 63  0   255 63  0   255 63  0   255 63  0   255 63  0   255 
19  103 165 0   65  156 0   38  186 24  37  227 43  29  246 39  6   235 46  0   232 66  8   251 51  0   251 56  0   255 68  0   255 78  3   255 81  1   255 81  0   255 83  0   255 81  0   255 69  0   255 62  1   255 62  1   255 62  1   255 62  1   255 62  1   255 62  1   255 62  1   255 62  1   255 62  1   255 62  1   255 62  1   255 62  1   255 62  1   255 62  1   255 62  1   255 63  0   255 63  0   255 63  0   255 63  0   255 63  0   255 63  0   255 63  0   255 63  0   255 63  0   255 63  0   255 63  0   255 63  0   255 63  0   255 63  0   255 63  0   255 63  0   255 63  0   255 63  0   255 63  0   255 63  0   255 63  0   255 63  0   255 63  0   255 63  0   255 63  0   255 63  0   255 63  0   255 63  0   255 63  0   255 63  0   255 63  0   255 63  0   255 63  0   255 63  0   255 63  0   255 
